<svg id="SvgjsSvg1001" width="288" height="288" xmlns="http://www.w3.org/2000/svg" version="1.1" xmlns:xlink="http://www.w3.org/1999/xlink" xmlns:svgjs="http://svgjs.com/svgjs"><defs id="SvgjsDefs1002"></defs><g id="SvgjsG1008"><svg xmlns="http://www.w3.org/2000/svg" xmlns:svgjs="http://svgjs.com/svgjs" xmlns:xlink="http://www.w3.org/1999/xlink" viewBox="0 0 288 288" width="288" height="288"><svg xmlns="http://www.w3.org/2000/svg" fill="none" viewBox="0 0 24 24" width="288" height="288"><path stroke="#1d2c4b" stroke-linecap="round" stroke-linejoin="round" stroke-width="1.5" d="M22 8.99998L19.38 9.99998M4.63 9.99998L2 8.99998M18.25 14H15.75M8.25 14H5.75M19.379 9.99998L18.54 5.98798C18.297 4.82998 17.276 3.99998 16.092 3.99998H8.01201C6.85101 3.99998 5.84201 4.79998 5.57801 5.93098L4.62701 9.99998" class="colorStrokefff svgStroke colorStroke000"></path><path stroke="#1d2c4b" stroke-linecap="round" stroke-linejoin="round" stroke-width="1.5" d="M3.25 20H5.5C6.328 20 7 19.328 7 18.5V17.5H17V18.5C17 19.328 17.672 20 18.5 20H20.75C21.44 20 22 19.44 22 18.75V13C22 11.343 20.657 9.99998 19 9.99998H5C3.343 9.99998 2 11.343 2 13V18.75C2 19.44 2.56 20 3.25 20Z" class="colorStrokefff svgStroke colorStroke000" clip-rule="evenodd"></path></svg></svg></g></svg>