<svg width="576" height="378" viewBox="0 0 576 378" fill="none" xmlns="http://www.w3.org/2000/svg">
<g clip-path="url(#clip0_2_1253)">
<path d="M341.438 133.836C341.438 133.836 356.605 188.291 341.438 244.637" stroke="#D3D5DC" stroke-width="1.5" stroke-miterlimit="10"/>
<path d="M147.321 243.101C146.263 238.14 136.152 187.346 147.439 134.899" stroke="#D3D5DC" stroke-width="1.5" stroke-miterlimit="10"/>
<path d="M399.755 118.716C399.755 118.716 448.078 181.794 399.755 259.875" stroke="#D3D5DC" stroke-width="1.5" stroke-miterlimit="10"/>
<path d="M494.873 189.118V233.297C494.873 245.228 485.585 255.032 473.827 255.623L399.755 259.639L344.025 244.637C337.911 242.983 331.562 242.156 325.095 242.156H160.02C151.437 242.156 142.854 243.338 134.506 245.818L85.9475 259.993C85.3596 260.111 84.7717 260.229 84.1838 260.229H58.7876C55.378 260.229 52.5562 257.394 52.5562 253.969V124.268C52.5562 120.842 55.378 118.125 58.7876 118.125H84.3014C84.8893 118.125 85.4772 118.243 86.065 118.361L134.624 132.536C142.854 135.017 151.437 136.198 160.02 136.198H325.095C331.444 136.198 337.793 135.371 344.025 133.718L399.755 118.716L473.827 122.732C485.585 123.323 494.873 133.127 494.873 145.058V189.118Z" stroke="#D3D5DC" stroke-width="1.5" stroke-miterlimit="10"/>
<path d="M86.4176 244.755V257.512C86.4176 259.048 85.1242 260.347 83.5958 260.347H55.2602C53.7317 260.347 52.4384 259.048 52.4384 257.512V244.873C52.4384 243.337 53.7317 242.038 55.2602 242.038H83.5958C85.2418 242.038 86.4176 243.219 86.4176 244.755Z" stroke="#D3D5DC" stroke-width="1.5" stroke-miterlimit="10"/>
<path d="M86.4176 121.432V134.072C86.4176 135.607 85.1242 136.907 83.5958 136.907H55.2602C53.7317 136.907 52.4384 135.607 52.4384 134.072V121.432C52.4384 119.897 53.7317 118.597 55.2602 118.597H83.5958C85.2418 118.716 86.4176 119.897 86.4176 121.432Z" stroke="#D3D5DC" stroke-width="1.5" stroke-miterlimit="10"/>
<path d="M52.5561 118.479V261.647C52.5561 264.6 50.2046 266.962 47.2652 266.962H39.2701C36.3308 266.962 33.9792 264.6 33.9792 261.647V118.479C33.9792 115.526 36.3308 113.164 39.2701 113.164H47.2652C50.2046 113.164 52.5561 115.526 52.5561 118.479Z" stroke="#D3D5DC" stroke-width="1.5" stroke-miterlimit="10"/>
<path d="M33.979 136.198H8.9355C5.40825 136.198 2.46887 133.245 2.46887 129.701V122.141C2.46887 118.597 5.40825 115.644 8.9355 115.644H33.979" stroke="#D3D5DC" stroke-width="1.5" stroke-miterlimit="10"/>
<path d="M33.979 265.072H8.9355C5.40825 265.072 2.46887 262.119 2.46887 258.576V251.016C2.46887 247.472 5.29067 244.519 8.81792 244.519H33.8614" stroke="#D3D5DC" stroke-width="1.5" stroke-miterlimit="10"/>
<path d="M523.444 261.647V118.479C523.444 115.526 525.796 113.164 528.735 113.164H536.73C539.669 113.164 542.021 115.526 542.021 118.479V261.647C542.021 264.6 539.669 266.962 536.73 266.962H528.735C525.913 266.962 523.444 264.6 523.444 261.647Z" stroke="#D3D5DC" stroke-width="1.5" stroke-miterlimit="10"/>
<path d="M494.873 253.496V126.63C494.873 123.204 497.695 120.369 501.105 120.369H517.212C520.622 120.369 523.444 123.204 523.444 126.63V253.496C523.444 256.922 520.622 259.757 517.212 259.757H501.105C497.695 259.757 494.873 257.04 494.873 253.496Z" stroke="#D3D5DC" stroke-width="1.5" stroke-miterlimit="10"/>
<path d="M542.021 243.928H567.064C570.591 243.928 573.531 246.881 573.531 250.425V257.985C573.531 261.529 570.591 264.482 567.064 264.482H542.021" stroke="#D3D5DC" stroke-width="1.5" stroke-miterlimit="10"/>
<path d="M542.021 115.054H567.064C570.591 115.054 573.531 118.007 573.531 121.551V129.111C573.531 132.654 570.591 135.607 567.064 135.607H542.021" stroke="#D3D5DC" stroke-width="1.5" stroke-miterlimit="10"/>
<path d="M81.5972 137.025C81.5972 137.025 91.0031 186.165 81.5972 242.038" stroke="#D3D5DC" stroke-width="1.5" stroke-miterlimit="10"/>
<path d="M71.9559 168.092V210.144C71.9559 212.861 69.722 215.106 67.0177 215.106C64.3135 215.106 62.0796 212.861 62.0796 210.144V168.092C62.0796 165.375 64.3135 163.131 67.0177 163.131C69.722 163.131 71.9559 165.375 71.9559 168.092Z" stroke="#D3D5DC" stroke-width="1.5" stroke-miterlimit="10"/>
<path d="M158.256 136.198C158.256 136.198 153.435 191.835 158.256 242.156" stroke="#D3D5DC" stroke-width="1.5" stroke-miterlimit="10"/>
<path d="M494.873 158.287C495.461 158.287 495.931 158.169 496.519 158.169C505.337 158.169 512.392 165.375 512.392 174.234V207.427C512.392 216.287 505.22 223.492 496.519 223.492C496.049 223.492 495.461 223.492 494.991 223.374" stroke="#D3D5DC" stroke-width="1.5" stroke-miterlimit="10"/>
<path d="M502.516 259.757L505.22 235.777C505.337 234.951 505.925 234.124 506.748 233.887L514.038 231.525C515.214 231.171 516.507 231.761 516.86 232.942C516.977 233.297 516.977 233.533 516.977 233.887L514.391 259.757" stroke="#D3D5DC" stroke-width="1.5" stroke-miterlimit="10"/>
<path d="M502.516 120.369L505.22 144.349C505.337 145.176 505.925 146.003 506.748 146.239L514.038 148.601C515.214 148.956 516.507 148.365 516.86 147.184C516.977 146.829 516.977 146.593 516.977 146.239L514.391 120.369" stroke="#D3D5DC" stroke-width="1.5" stroke-miterlimit="10"/>
<path d="M533.32 161.713V219.831" stroke="#D3D5DC" stroke-width="1.5" stroke-miterlimit="10"/>
<path d="M413.629 231.407L404.223 178.487" stroke="#D3D5DC" stroke-width="1.5" stroke-miterlimit="10"/>
<path d="M418.802 209.554L409.396 156.634" stroke="#D3D5DC" stroke-width="1.5" stroke-miterlimit="10"/>
<path d="M351.785 246.763L402.695 281.374C403.753 282.083 404.928 282.555 406.222 282.673L484.292 293.541C486.878 293.895 489.23 295.549 490.523 297.911L504.75 325.434" stroke="#D3D5DC" stroke-width="1.5" stroke-miterlimit="10"/>
<path d="M499.106 314.921H483.351C479.589 314.921 476.414 311.85 476.414 307.952C476.414 304.172 479.471 301.101 483.233 301.101H489.7" stroke="#D3D5DC" stroke-width="1.5" stroke-miterlimit="10"/>
<path d="M507.336 332.64C507.336 338.783 502.398 343.862 496.167 343.862H473.475C471.358 343.862 469.595 342.09 469.595 339.964V325.553C469.595 323.426 471.358 321.654 473.475 321.654H496.167C502.281 321.536 507.336 326.498 507.336 332.64Z" stroke="#D3D5DC" stroke-width="1.5" stroke-miterlimit="10"/>
<path d="M406.574 354.611H222.805" stroke="#D3D5DC" stroke-width="1.5" stroke-miterlimit="10"/>
<path d="M476.531 343.862H494.991C497.93 343.862 500.282 346.224 500.282 349.178C500.282 352.131 497.93 354.493 494.991 354.493H454.663" stroke="#D3D5DC" stroke-width="1.5" stroke-miterlimit="10"/>
<path d="M430.56 370.558C445.04 370.558 456.779 358.765 456.779 344.216C456.779 329.668 445.04 317.874 430.56 317.874C416.079 317.874 404.341 329.668 404.341 344.216C404.341 358.765 416.079 370.558 430.56 370.558Z" stroke="#D3D5DC" stroke-width="1.5" stroke-miterlimit="10"/>
<path d="M430.56 359.218C438.806 359.218 445.492 352.502 445.492 344.216C445.492 335.931 438.806 329.214 430.56 329.214C422.313 329.214 415.628 335.931 415.628 344.216C415.628 352.502 422.313 359.218 430.56 359.218Z" stroke="#D3D5DC" stroke-width="1.5" stroke-miterlimit="10"/>
<path d="M198.467 370.558C212.947 370.558 224.686 358.765 224.686 344.216C224.686 329.668 212.947 317.874 198.467 317.874C183.986 317.874 172.247 329.668 172.247 344.216C172.247 358.765 183.986 370.558 198.467 370.558Z" stroke="#D3D5DC" stroke-width="1.5" stroke-miterlimit="10"/>
<path d="M198.467 359.218C206.713 359.218 213.399 352.502 213.399 344.216C213.399 335.931 206.713 329.214 198.467 329.214C190.22 329.214 183.535 335.931 183.535 344.216C183.535 352.502 190.22 359.218 198.467 359.218Z" stroke="#D3D5DC" stroke-width="1.5" stroke-miterlimit="10"/>
<path d="M173.423 336.302H121.103C118.986 336.302 117.223 338.074 117.223 340.2C117.223 342.326 118.986 344.098 121.103 344.098H172.365" stroke="#D3D5DC" stroke-width="1.5" stroke-miterlimit="10"/>
<path d="M147.439 313.504V333.349C147.439 335.003 146.146 336.302 144.5 336.302H114.636C112.99 336.302 111.696 335.003 111.696 333.349V313.504C111.696 311.85 112.99 310.551 114.636 310.551H144.5C146.146 310.551 147.439 311.85 147.439 313.504Z" stroke="#D3D5DC" stroke-width="1.5" stroke-miterlimit="10"/>
<path d="M185.181 321.536H147.439" stroke="#D3D5DC" stroke-width="1.5" stroke-miterlimit="10"/>
<path d="M365.776 267.908L330.033 245.346C326.741 243.338 322.979 242.156 319.099 242.156H313.337" stroke="#D3D5DC" stroke-width="1.5" stroke-miterlimit="10"/>
<path d="M215.045 242.156C214.692 242.156 200.818 307.598 200.818 307.598C200.818 307.598 234.444 307.598 234.444 346.933H386.116C389.173 346.933 391.642 344.453 391.642 341.381V287.28C391.642 285.39 390.702 283.618 389.056 282.555L372.83 272.278" stroke="#D3D5DC" stroke-width="1.5" stroke-miterlimit="10"/>
<path d="M373.654 275.704V282.673C373.654 287.044 370.126 290.469 365.894 290.469H361.073V267.908H365.894C370.126 267.908 373.654 271.451 373.654 275.704Z" stroke="#D3D5DC" stroke-width="1.5" stroke-miterlimit="10"/>
<path d="M373.653 282.791H389.056" stroke="#D3D5DC" stroke-width="1.5" stroke-miterlimit="10"/>
<path d="M192.706 242.156H180.36C176.598 242.156 173.071 244.164 171.072 247.472L162.842 261.411C158.844 268.144 161.078 276.885 167.662 280.901C169.896 282.201 172.365 282.909 174.952 282.909H360.955" stroke="#D3D5DC" stroke-width="1.5" stroke-miterlimit="10"/>
<path d="M285.237 242.156V346.933" stroke="#D3D5DC" stroke-width="1.5" stroke-miterlimit="10"/>
<path d="M136.27 279.011H123.689C121.102 279.011 119.104 281.138 119.104 283.618V300.746C118.986 303.345 121.102 305.471 123.689 305.589C125.335 305.589 126.746 304.881 127.687 303.581L140.032 286.571C141.56 284.445 141.208 281.492 139.091 279.956C138.386 279.366 137.328 279.011 136.27 279.011Z" stroke="#D3D5DC" stroke-width="1.5" stroke-miterlimit="10"/>
<path d="M119.221 294.604V310.551" stroke="#D3D5DC" stroke-width="1.5" stroke-miterlimit="10"/>
<path d="M134.741 276.767L155.199 249.952C155.669 249.362 155.552 248.417 154.964 248.062C154.729 247.826 154.376 247.826 154.023 247.826L147.439 248.417C147.086 248.417 146.734 248.653 146.499 249.007L132.037 268.616C131.214 269.679 130.979 271.097 131.331 272.396L132.39 276.294C132.625 277.003 133.33 277.476 134.036 277.239C134.271 277.121 134.624 277.003 134.741 276.767Z" stroke="#D3D5DC" stroke-width="1.5" stroke-miterlimit="10"/>
<path d="M149.673 248.181L149.791 247.944C151.789 244.519 155.317 242.393 159.314 242.274L162.724 242.156" stroke="#D3D5DC" stroke-width="1.5" stroke-miterlimit="10"/>
<path d="M314.043 295.194H297.582" stroke="#D3D5DC" stroke-width="1.5" stroke-miterlimit="10"/>
<path d="M231.035 295.194H214.574" stroke="#D3D5DC" stroke-width="1.5" stroke-miterlimit="10"/>
<path d="M351.785 131.591L402.695 97.0987C403.753 96.3899 404.928 95.9174 406.222 95.7993L484.292 84.9318C486.878 84.5774 489.23 82.9237 490.523 80.5612L504.75 53.0381" stroke="#D3D5DC" stroke-width="1.5" stroke-miterlimit="10"/>
<path d="M499.106 63.4332H483.351C479.589 63.4332 476.532 66.5045 476.414 70.2845C476.414 74.0645 479.471 77.2539 483.351 77.2539H489.818" stroke="#D3D5DC" stroke-width="1.5" stroke-miterlimit="10"/>
<path d="M469.477 52.9201V38.5089C469.477 36.3826 471.241 34.6107 473.357 34.4926C473.357 34.4926 473.357 34.4926 473.475 34.4926H496.167C502.281 34.4926 507.336 39.4539 507.336 45.7145C507.336 51.857 502.398 56.9364 496.167 56.9364H473.475C471.358 56.8182 469.595 55.0464 469.477 52.9201Z" stroke="#D3D5DC" stroke-width="1.5" stroke-miterlimit="10"/>
<path d="M406.574 23.7432H222.805" stroke="#D3D5DC" stroke-width="1.5" stroke-miterlimit="10"/>
<path d="M476.531 34.4925H494.991C497.93 34.4925 500.282 32.13 500.282 29.1769C500.282 26.2238 497.93 23.8613 494.991 23.8613H454.663" stroke="#D3D5DC" stroke-width="1.5" stroke-miterlimit="10"/>
<path d="M430.56 60.5982C445.04 60.5982 456.779 48.8046 456.779 34.2564C456.779 19.7081 445.04 7.91448 430.56 7.91448C416.079 7.91448 404.341 19.7081 404.341 34.2564C404.341 48.8046 416.079 60.5982 430.56 60.5982Z" stroke="#D3D5DC" stroke-width="1.5" stroke-miterlimit="10"/>
<path d="M430.56 49.258C438.806 49.258 445.492 42.5414 445.492 34.2561C445.492 25.9708 438.806 19.2543 430.56 19.2543C422.313 19.2543 415.628 25.9708 415.628 34.2561C415.628 42.5414 422.313 49.258 430.56 49.258Z" stroke="#D3D5DC" stroke-width="1.5" stroke-miterlimit="10"/>
<path d="M198.467 60.5982C212.947 60.5982 224.686 48.8046 224.686 34.2564C224.686 19.7081 212.947 7.91448 198.467 7.91448C183.986 7.91448 172.247 19.7081 172.247 34.2564C172.247 48.8046 183.986 60.5982 198.467 60.5982Z" stroke="#D3D5DC" stroke-width="1.5" stroke-miterlimit="10"/>
<path d="M198.467 49.258C206.713 49.258 213.399 42.5414 213.399 34.2561C213.399 25.9708 206.713 19.2543 198.467 19.2543C190.22 19.2543 183.535 25.9708 183.535 34.2561C183.535 42.5414 190.22 49.258 198.467 49.258Z" stroke="#D3D5DC" stroke-width="1.5" stroke-miterlimit="10"/>
<path d="M173.423 42.0525H121.103C118.986 42.0525 117.223 40.2806 117.223 38.1544C117.223 36.0281 118.986 34.2562 121.103 34.2562H172.365" stroke="#D3D5DC" stroke-width="1.5" stroke-miterlimit="10"/>
<path d="M111.814 64.9688V45.0056C111.814 43.3519 113.107 42.0525 114.753 42.0525H144.617C146.263 42.0525 147.557 43.3519 147.557 45.0056V64.9688C147.557 66.6225 146.263 67.9219 144.617 67.9219H114.636C113.107 67.8038 111.814 66.5044 111.814 64.9688Z" stroke="#D3D5DC" stroke-width="1.5" stroke-miterlimit="10"/>
<path d="M185.181 56.8181H147.439" stroke="#D3D5DC" stroke-width="1.5" stroke-miterlimit="10"/>
<path d="M215.045 136.198C214.692 136.198 200.818 70.7569 200.818 70.7569C200.818 70.7569 234.444 70.7569 234.444 31.4213H386.116C389.173 31.4213 391.642 33.9019 391.642 36.9732V91.0744C391.642 92.9644 390.702 94.7363 389.056 95.7994L372.713 106.194" stroke="#D3D5DC" stroke-width="1.5" stroke-miterlimit="10"/>
<path d="M361.073 110.447V87.885H365.894C370.244 87.885 373.654 91.4287 373.654 95.6812V102.651C373.654 107.021 370.126 110.447 365.894 110.447H361.073Z" stroke="#D3D5DC" stroke-width="1.5" stroke-miterlimit="10"/>
<path d="M373.653 95.5631H389.056" stroke="#D3D5DC" stroke-width="1.5" stroke-miterlimit="10"/>
<path d="M192.706 136.198H180.36C176.598 136.198 173.071 134.19 171.072 130.882L162.842 116.944C158.844 110.21 160.96 101.469 167.662 97.453C169.896 96.1536 172.365 95.4449 174.952 95.4449H360.955" stroke="#D3D5DC" stroke-width="1.5" stroke-miterlimit="10"/>
<path d="M285.237 136.198V31.4213" stroke="#D3D5DC" stroke-width="1.5" stroke-miterlimit="10"/>
<path d="M136.27 99.3432H123.689C121.102 99.3432 119.104 97.3351 119.104 94.7364V77.7264C118.986 75.1276 121.102 72.8832 123.689 72.8832C125.335 72.8832 126.746 73.592 127.687 74.8914L140.032 91.9014C141.56 94.0276 141.208 96.9807 139.091 98.5164C138.386 99.107 137.328 99.4614 136.27 99.3432Z" stroke="#D3D5DC" stroke-width="1.5" stroke-miterlimit="10"/>
<path d="M119.221 83.8687V67.8037" stroke="#D3D5DC" stroke-width="1.5" stroke-miterlimit="10"/>
<path d="M134.741 101.587L155.199 128.402C155.669 128.993 155.552 129.819 154.964 130.292C154.729 130.528 154.376 130.646 154.023 130.528L147.439 129.938C147.086 129.938 146.734 129.701 146.499 129.347L132.037 109.856C131.214 108.793 130.979 107.376 131.331 106.076L132.39 102.178C132.507 101.469 133.33 100.997 134.036 101.115C134.271 101.115 134.506 101.351 134.741 101.587Z" stroke="#D3D5DC" stroke-width="1.5" stroke-miterlimit="10"/>
<path d="M314.043 83.16H297.582" stroke="#D3D5DC" stroke-width="1.5" stroke-miterlimit="10"/>
<path d="M231.035 83.16H214.574" stroke="#D3D5DC" stroke-width="1.5" stroke-miterlimit="10"/>
<ellipse cx="437.369" cy="74.1965" rx="9.76271" ry="9.76272" fill="#F7F7F7"/>
<path d="M438.954 69.2254H437.45L435.281 70.6188V72.0677L437.322 70.7637H437.373V77.9526H438.954V69.2254Z" fill="#A3A3A3"/>
<ellipse cx="430.763" cy="33.7762" rx="9.76271" ry="9.76272" fill="#F7F7F7"/>
<path d="M428.502 28.805H426.997L424.828 30.1985V31.6473L426.87 30.3434H426.921V37.5323H428.502V28.805ZM430.26 35.913H434.423V37.5323H435.932V35.913H437.048V34.6132H435.932V28.805H433.963L430.26 34.6559V35.913ZM434.44 34.6132H431.879V34.5451L434.372 30.5948H434.44V34.6132Z" fill="#A3A3A3"/>
<ellipse cx="198.763" cy="33.7762" rx="9.76271" ry="9.76272" fill="#F7F7F7"/>
<path d="M196.701 28.805H195.197L193.028 30.1985V31.6473L195.069 30.3434H195.12V37.5323H196.701V28.805ZM201.651 37.6516C203.496 37.6516 204.783 36.3988 204.783 34.6644C204.783 32.9854 203.615 31.7752 202.03 31.7752C201.323 31.7752 200.696 32.0564 200.372 32.44H200.321L200.573 30.126H204.327V28.805H199.265L198.809 33.305L200.236 33.5394C200.53 33.2155 201.084 32.9982 201.608 33.0025C202.567 33.0067 203.257 33.7141 203.253 34.7027C203.257 35.6786 202.584 36.3732 201.651 36.3732C200.863 36.3732 200.228 35.8746 200.172 35.1587H198.638C198.681 36.6076 199.946 37.6516 201.651 37.6516Z" fill="#A3A3A3"/>
<ellipse cx="197.763" cy="343.95" rx="9.76271" ry="9.76273" fill="#F7F7F7"/>
<path d="M195.607 338.979H194.103L191.934 340.372V341.821L193.975 340.517H194.026V347.706H195.607V338.979ZM200.719 347.825C202.603 347.838 203.868 346.543 203.864 344.817C203.868 343.168 202.692 341.975 201.162 341.975C200.225 341.975 199.398 342.431 198.98 343.181H198.921C198.925 341.344 199.598 340.227 200.809 340.227C201.559 340.227 202.066 340.662 202.228 341.331H203.783C203.595 339.921 202.458 338.86 200.809 338.86C198.712 338.86 197.387 340.607 197.387 343.59C197.382 346.79 199.044 347.817 200.719 347.825ZM200.711 346.547C199.777 346.547 199.095 345.776 199.091 344.864C199.1 343.948 199.807 343.181 200.732 343.181C201.657 343.181 202.334 343.914 202.33 344.851C202.334 345.806 201.635 346.547 200.711 346.547Z" fill="#A3A3A3"/>
<ellipse cx="430.763" cy="343.95" rx="9.76271" ry="9.76273" fill="#F7F7F7"/>
<path d="M429.476 338.979H427.972L425.803 340.372V341.821L427.844 340.517H427.895V347.706H429.476V338.979ZM431.712 347.706H433.352L437.06 340.33V338.979H431.115V340.3H435.423V340.36L431.712 347.706Z" fill="#A3A3A3"/>
<circle cx="339.742" cy="56.6237" r="9.76271" fill="#F7F7F7"/>
<path d="M336.628 60.3798H342.611V59.0588H338.81V58.9991L340.314 57.4693C342.01 55.8415 342.479 55.0489 342.479 54.0645C342.479 52.6028 341.29 51.5332 339.534 51.5332C337.804 51.5332 336.577 52.6071 336.577 54.2648H338.081C338.081 53.3741 338.644 52.8159 339.513 52.8159C340.344 52.8159 340.962 53.323 340.962 54.1454C340.962 54.8741 340.519 55.394 339.658 56.2676L336.628 59.2378V60.3798Z" fill="#A3A3A3"/>
<ellipse cx="260.492" cy="56.6237" rx="9.76274" ry="9.76271" fill="#F7F7F7"/>
<path d="M260.481 60.4991C262.347 60.4991 263.707 59.4295 263.703 57.9551C263.707 56.8642 263.025 56.0801 261.802 55.9054V55.8372C262.748 55.6327 263.383 54.9295 263.379 53.9494C263.383 52.6199 262.249 51.5332 260.506 51.5332C258.81 51.5332 257.498 52.5432 257.464 54.0048H258.985C259.011 53.2719 259.693 52.8159 260.498 52.8159C261.312 52.8159 261.853 53.3102 261.849 54.0432C261.853 54.806 261.222 55.3131 260.319 55.3131H259.548V56.5318H260.319C261.423 56.5318 262.079 57.0858 262.075 57.8741C262.079 58.6454 261.41 59.1739 260.477 59.1739C259.599 59.1739 258.921 58.7179 258.883 58.0062H257.281C257.323 59.4807 258.64 60.4991 260.481 60.4991Z" fill="#A3A3A3"/>
<ellipse cx="175.786" cy="77.5654" rx="9.76273" ry="9.76272" fill="#0065FF"/>
<path d="M172.397 79.7022H176.561V81.3215H178.069V79.7022H179.186V78.4025H178.069V72.5942H176.101L172.397 78.4451V79.7022ZM176.578 78.4025H174.017V78.3343L176.51 74.384H176.578V78.4025Z" fill="white"/>
<ellipse cx="116.492" cy="188.592" rx="9.76271" ry="9.7627" fill="#0065FF"/>
<path d="M113.625 183.621H112.12L109.951 185.015V186.463L111.992 185.159H112.044V192.348H113.625V183.621ZM118.673 192.468C120.539 192.468 121.898 191.398 121.894 189.924C121.898 188.833 121.217 188.049 119.994 187.874V187.806C120.94 187.601 121.575 186.898 121.57 185.918C121.575 184.588 120.441 183.502 118.698 183.502C117.002 183.502 115.69 184.512 115.656 185.973H117.177C117.202 185.24 117.884 184.784 118.69 184.784C119.504 184.784 120.045 185.279 120.04 186.012C120.045 186.775 119.414 187.282 118.511 187.282H117.739V188.5H118.511C119.614 188.5 120.271 189.054 120.266 189.843C120.271 190.614 119.602 191.142 118.668 191.142C117.79 191.142 117.113 190.686 117.075 189.975H115.472C115.515 191.449 116.832 192.468 118.673 192.468Z" fill="white"/>
<ellipse cx="543.41" cy="188.592" rx="9.76279" ry="9.7627" fill="#0065FF"/>
<path d="M540.448 183.621H538.944L536.775 185.015V186.463L538.816 185.159H538.867V192.348H540.448V183.621ZM545.59 192.515C547.695 192.519 548.952 190.857 548.952 187.993C548.952 185.147 547.687 183.502 545.59 183.502C543.494 183.502 542.232 185.142 542.228 187.993C542.228 190.853 543.485 192.515 545.59 192.515ZM545.59 191.181C544.504 191.181 543.822 190.09 543.826 187.993C543.83 185.914 544.508 184.819 545.59 184.819C546.677 184.819 547.354 185.914 547.359 187.993C547.359 190.09 546.681 191.181 545.59 191.181Z" fill="white"/>
<ellipse cx="457.01" cy="188.592" rx="9.76268" ry="9.7627" fill="#F7F7F7"/>
<path d="M455.015 183.621H453.511L451.342 185.015V186.463L453.383 185.159H453.434V192.348H455.015V183.621ZM460.48 183.621H458.976L456.807 185.015V186.463L458.848 185.159H458.899V192.348H460.48V183.621Z" fill="#A3A3A3"/>
<ellipse cx="260.492" cy="188.592" rx="9.76274" ry="9.7627" fill="#F7F7F7"/>
<path d="M258.306 183.621H256.802L254.633 185.015V186.463L256.674 185.159H256.725V192.348H258.306V183.621ZM260.222 192.348H266.205V191.027H262.404V190.968L263.908 189.438C265.604 187.81 266.073 187.017 266.073 186.033C266.073 184.571 264.884 183.502 263.128 183.502C261.398 183.502 260.171 184.576 260.171 186.233H261.675C261.675 185.343 262.238 184.784 263.107 184.784C263.938 184.784 264.556 185.292 264.556 186.114C264.556 186.843 264.113 187.363 263.252 188.236L260.222 191.206V192.348Z" fill="#A3A3A3"/>
<ellipse cx="33.4804" cy="188.592" rx="9.7627" ry="9.7627" fill="#F7F7F7"/>
<path d="M33.3296 192.468C35.1747 192.468 36.4617 191.215 36.4617 189.481C36.4617 187.802 35.294 186.591 33.7088 186.591C33.0014 186.591 32.375 186.873 32.0511 187.256H32L32.2514 184.942H36.0057V183.621H30.9432L30.4872 188.121L31.9148 188.356C32.2088 188.032 32.7628 187.814 33.2869 187.819C34.2457 187.823 34.9361 188.53 34.9318 189.519C34.9361 190.495 34.2628 191.189 33.3296 191.189C32.5412 191.189 31.9063 190.691 31.8509 189.975H30.3168C30.3594 191.424 31.625 192.468 33.3296 192.468Z" fill="#A3A3A3"/>
<ellipse cx="175.786" cy="300.467" rx="9.76273" ry="9.76277" fill="#F7F7F7"/>
<path d="M175.857 304.342C177.74 304.355 179.006 303.059 179.001 301.334C179.006 299.684 177.83 298.491 176.3 298.491C175.362 298.491 174.536 298.947 174.118 299.697H174.058C174.063 297.861 174.736 296.744 175.946 296.744C176.696 296.744 177.203 297.179 177.365 297.848H178.921C178.733 296.437 177.595 295.376 175.946 295.376C173.849 295.376 172.524 297.123 172.524 300.106C172.52 303.307 174.182 304.334 175.857 304.342ZM175.848 303.064C174.915 303.064 174.233 302.292 174.229 301.38C174.237 300.464 174.945 299.697 175.869 299.697C176.794 299.697 177.472 300.43 177.467 301.368C177.472 302.322 176.773 303.064 175.848 303.064Z" fill="#A3A3A3"/>
<ellipse cx="260.492" cy="322.503" rx="9.76274" ry="9.76273" fill="#F7F7F7"/>
<path d="M257.902 326.259H259.543L263.25 318.882V317.531H257.306V318.852H261.614V318.912L257.902 326.259Z" fill="#A3A3A3"/>
<ellipse cx="340.116" cy="322.503" rx="9.76276" ry="9.76273" fill="#F7F7F7"/>
<path d="M340.11 326.378C341.998 326.378 343.348 325.338 343.353 323.919C343.348 322.828 342.543 321.916 341.529 321.746V321.686C342.411 321.49 343.025 320.698 343.029 319.752C343.025 318.409 341.789 317.412 340.11 317.412C338.418 317.412 337.182 318.405 337.186 319.752C337.182 320.698 337.787 321.49 338.686 321.686V321.746C337.655 321.916 336.858 322.828 336.863 323.919C336.858 325.338 338.205 326.378 340.11 326.378ZM340.11 325.159C339.121 325.159 338.482 324.614 338.49 323.808C338.482 322.973 339.168 322.381 340.11 322.381C341.039 322.381 341.721 322.977 341.729 323.808C341.721 324.614 341.086 325.159 340.11 325.159ZM340.11 321.183C339.3 321.183 338.721 320.659 338.729 319.901C338.721 319.151 339.283 318.648 340.11 318.648C340.924 318.648 341.482 319.151 341.49 319.901C341.482 320.664 340.907 321.183 340.11 321.183Z" fill="#A3A3A3"/>
<ellipse cx="436.68" cy="303.009" rx="9.76271" ry="9.76276" fill="#F7F7F7"/>
<path d="M436.585 297.919C434.693 297.906 433.436 299.206 433.436 300.91C433.44 302.555 434.612 303.744 436.142 303.744C437.083 303.744 437.901 303.288 438.323 302.538H438.383C438.379 304.405 437.701 305.517 436.495 305.517C435.741 305.517 435.234 305.082 435.076 304.388H433.521C433.7 305.832 434.842 306.885 436.495 306.885C438.588 306.885 439.921 305.138 439.917 302.133C439.913 298.954 438.259 297.927 436.585 297.919ZM436.589 299.197C437.522 299.197 438.208 299.973 438.208 300.863C438.213 301.767 437.492 302.542 436.572 302.542C435.643 302.542 434.974 301.809 434.97 300.876C434.97 299.939 435.664 299.197 436.589 299.197Z" fill="#A3A3A3"/>
</g>
<defs>
<clipPath id="clip0_2_1253">
<rect width="576" height="378" fill="white"/>
</clipPath>
</defs>
</svg>
